<?xml version="1.0" encoding="utf-8"?>
<!-- Generator: Adobe Illustrator 18.1.0, SVG Export Plug-In . SVG Version: 6.00 Build 0)  -->
<!DOCTYPE svg PUBLIC "-//W3C//DTD SVG 1.1//EN" "http://www.w3.org/Graphics/SVG/1.1/DTD/svg11.dtd">
<svg version="1.1" xmlns="http://www.w3.org/2000/svg" xmlns:xlink="http://www.w3.org/1999/xlink" x="0px" y="0px"
	 viewBox="0 0 595.8 66.5" enable-background="new 0 0 595.8 66.5" xml:space="preserve">
<g id="brooklyn">
	<path fill="#FFFFFF" d="M233.6,52.3v-40h22.7c7.9,0,11.7,5.2,11.7,10.2c0,5-3.1,8.3-6.8,9.2c4.3,0.7,7.6,4.7,7.6,9.8
		c0,5.8-3.9,10.9-11.8,10.9H233.6z M257.5,24.3c0-1.9-1.4-3.3-3.5-3.3h-10v6.7h10C256,27.6,257.5,26.3,257.5,24.3z M258.3,40
		c0-2-1.4-3.6-4-3.6h-10.4v7.2h10.4C256.8,43.6,258.3,42.2,258.3,40z"/>
	<path fill="#FFFFFF" d="M301.1,52.3l-6.7-13.4h-5.3v13.4h-10.3v-40h20c8.9,0,13.9,5.9,13.9,13.3c0,7-4.3,10.7-8,12l8.2,14.7H301.1z
		 M302.2,25.5c0-2.7-2.3-4.3-5-4.3h-8.2v8.6h8.2C299.9,29.9,302.2,28.4,302.2,25.5z"/>
	<path fill="#FFFFFF" d="M322.9,32.7c0-12.2,9.2-20.7,21.4-20.7c12.2,0,21.4,8.5,21.4,20.7c0,12.2-9.1,20.7-21.4,20.7
		C332.1,53.4,322.9,44.8,322.9,32.7z M355.2,32.7c0-6.5-4.3-11.6-10.9-11.6c-6.7,0-10.9,5-10.9,11.6c0,6.5,4.3,11.6,10.9,11.6
		C350.9,44.2,355.2,39.1,355.2,32.7z"/>
	<path fill="#FFFFFF" d="M375.7,32.7c0-12.2,9.2-20.7,21.4-20.7s21.4,8.5,21.4,20.7c0,12.2-9.1,20.7-21.4,20.7
		S375.7,44.8,375.7,32.7z M408,32.7c0-6.5-4.3-11.6-10.9-11.6c-6.7,0-10.9,5-10.9,11.6c0,6.5,4.3,11.6,10.9,11.6
		C403.7,44.2,408,39.1,408,32.7z"/>
	<path fill="#FFFFFF" d="M452,52.6l-10.5-15.1l-2.7,3.4v11.7h-10.3v-40h10.3v16.4l12.3-16.4h12.7l-15.5,18.7l16.4,21.3H452z"/>
	<path fill="#FFFFFF" d="M474.6,52.6v-40h10.3v31H501v9H474.6z"/>
	<path fill="#FFFFFF" d="M523.2,52.6V36.5L508,12.6h11.6l8.7,14.8l8.6-14.8h11.7l-15.1,23.9v16.1H523.2z"/>
	<path fill="#FFFFFF" d="M585.9,52.6L569,29.5v23.2h-10.3v-40h10.6l16.2,22v-22h10.4v40H585.9z"/>
</g>
<g id="t">
	<g>
		<path fill="#FFFFFF" d="M182.1,52.7v-31h-11.2v-9h32.7v9h-11.2v31H182.1z"/>
	</g>
</g>
<g id="O">
	<g>
		<circle fill="#FFFFFF" cx="124.6" cy="33.2" r="33.2"/>
		<rect x="91.4" y="0" fill="#FFFFFF" width="33.2" height="33.2"/>
		<circle fill="#DD2F2F" cx="125.1" cy="32.9" r="20.5"/>
	</g>
</g>
<g id="sp">
	<path fill="#FFFFFF" d="M0,47l5.5-7.7c2.9,2.9,7.3,5.3,12.8,5.3c3.5,0,5.7-1.4,5.7-3.3c0-5.5-22.7-1.1-22.7-16.5
		C1.3,18,7,12,17.2,12c6.4,0,12,1.9,16.3,5.6L27.8,25c-3.4-2.8-7.7-4.1-11.7-4.1c-3,0-4.3,1.2-4.3,2.9c0,5.1,22.6,1.4,22.6,16.3
		c0,8-5.9,13.4-16.7,13.4C9.7,53.3,4,50.8,0,47z"/>
	<path fill="#FFFFFF" d="M44.4,52.6v-40h20c9,0,13.9,6.1,13.9,13.3c0,7.2-4.9,13.3-13.9,13.3h-9.7v13.4H44.4z M67.9,25.9
		c0-2.8-2-4.3-4.8-4.3h-8.3v8.6h8.3C65.9,30.2,67.9,28.6,67.9,25.9z"/>
</g>
</svg>
