<?xml version="1.0" encoding="utf-8"?>
<!-- Generator: Adobe Illustrator 18.1.0, SVG Export Plug-In . SVG Version: 6.00 Build 0)  -->
<!DOCTYPE svg PUBLIC "-//W3C//DTD SVG 1.1//EN" "http://www.w3.org/Graphics/SVG/1.1/DTD/svg11.dtd">
<svg version="1.1" id="Layer_1" xmlns="http://www.w3.org/2000/svg" xmlns:xlink="http://www.w3.org/1999/xlink" x="0px" y="0px"
	 viewBox="0 222.1 500.1 55.7" enable-background="new 0 222.1 500.1 55.7" xml:space="preserve">
<g id="brooklyn">
	<path fill="#FFFFFF" d="M196,266v-33.6h19.1c6.6,0,9.8,4.4,9.8,8.6c0,4.2-2.6,7-5.7,7.7c3.6,0.6,6.4,3.9,6.4,8.2
		c0,4.9-3.3,9.1-9.9,9.1L196,266L196,266z M216.1,242.5c0-1.6-1.2-2.8-2.9-2.8h-8.4v5.6h8.4C214.8,245.3,216.1,244.2,216.1,242.5z
		 M216.8,255.7c0-1.7-1.2-3-3.4-3h-8.7v6h8.7C215.5,258.7,216.8,257.5,216.8,255.7z"/>
	<path fill="#FFFFFF" d="M252.7,266l-5.6-11.2h-4.4V266H234v-33.6h16.8c7.5,0,11.7,5,11.7,11.2c0,5.9-3.6,9-6.7,10.1l6.9,12.3
		C262.6,266,252.7,266,252.7,266z M253.6,243.5c0-2.3-1.9-3.6-4.2-3.6h-6.9v7.2h6.9C251.7,247.2,253.6,245.9,253.6,243.5z"/>
	<path fill="#FFFFFF" d="M271,249.5c0-10.2,7.7-17.4,18-17.4c10.2,0,18,7.1,18,17.4s-7.6,17.4-18,17.4
		C278.7,266.9,271,259.7,271,249.5z M298.1,249.5c0-5.5-3.6-9.7-9.1-9.7c-5.6,0-9.1,4.2-9.1,9.7c0,5.5,3.6,9.7,9.1,9.7
		C294.5,259.2,298.1,254.9,298.1,249.5z"/>
	<path fill="#FFFFFF" d="M315.3,249.5c0-10.2,7.7-17.4,18-17.4c10.2,0,18,7.1,18,17.4s-7.6,17.4-18,17.4
		C322.9,266.9,315.3,259.7,315.3,249.5z M342.4,249.5c0-5.5-3.6-9.7-9.1-9.7c-5.6,0-9.1,4.2-9.1,9.7c0,5.5,3.6,9.7,9.1,9.7
		C338.8,259.2,342.4,254.9,342.4,249.5z"/>
	<path fill="#FFFFFF" d="M379.3,266.2l-8.8-12.7l-2.3,2.9v9.8h-8.6v-33.6h8.6v13.8l10.3-13.8h10.7l-13,15.7l13.8,17.9
		C390,266.2,379.3,266.2,379.3,266.2z"/>
	<path fill="#FFFFFF" d="M398.3,266.2v-33.6h8.6v26h13.5v7.6H398.3z"/>
	<path fill="#FFFFFF" d="M439.1,266.2v-13.5l-12.8-20.1h9.7l7.3,12.4l7.2-12.4h9.8l-12.7,20.1v13.5H439.1z"/>
	<path fill="#FFFFFF" d="M491.7,266.2l-14.2-19.4v19.5h-8.6v-33.6h8.9l13.6,18.5v-18.5h8.7v33.6L491.7,266.2L491.7,266.2z"/>
</g>
<g id="t">
	<g>
		<path fill="#FFFFFF" d="M152.8,266.3v-26h-9.4v-7.6h27.4v7.6h-9.4v26H152.8z"/>
	</g>
</g>
<g id="O">
	<g>
		<circle fill="#FFFFFF" cx="104.6" cy="250" r="27.9"/>
		<rect x="76.7" y="222.1" fill="#FFFFFF" width="27.9" height="27.9"/>
		<circle fill="#DD2F2F" cx="105" cy="249.7" r="17.2"/>
	</g>
</g>
<g id="sp">
	<path fill="#FFFFFF" d="M0,261.5l4.6-6.5c2.4,2.4,6.1,4.4,10.7,4.4c2.9,0,4.8-1.2,4.8-2.8c0-4.6-19.1-0.9-19.1-13.8
		c0-5.7,4.8-10.7,13.3-10.7c5.4,0,10.1,1.6,13.7,4.7l-4.8,6.2c-2.9-2.3-6.5-3.4-9.8-3.4c-2.5,0-3.6,1-3.6,2.4c0,4.3,19,1.2,19,13.7
		c0,6.7-5,11.2-14,11.2C8.1,266.8,3.4,264.7,0,261.5z"/>
	<path fill="#FFFFFF" d="M37.3,266.2v-33.6H54c7.6,0,11.7,5.1,11.7,11.2c0,6-4.1,11.2-11.7,11.2h-8.1v11.2H37.3z M57,243.8
		c0-2.3-1.7-3.6-4-3.6h-7v7.2h7C55.3,247.4,57,246.1,57,243.8z"/>
</g>
</svg>
